<?xml version="1.0" encoding="UTF-8"?>
<svg xmlns="http://www.w3.org/2000/svg" xmlns:xlink="http://www.w3.org/1999/xlink" width="50px" height="50px" viewBox="0 0 372 372" version="1.1">
<g id="surface1">
<path style=" stroke:none;fill-rule:nonzero;fill:rgb(0%,0%,0%);fill-opacity:1;" d="M 274.523438 229.734375 C 264.765625 227.769531 257.15625 222.515625 250.644531 215.828125 C 230.90625 195.550781 216.847656 172.007812 210.890625 144.085938 C 209.859375 139.246094 209.347656 134.304688 210.378906 129.234375 C 211.53125 123.566406 213.832031 119.078125 219.535156 117.03125 C 225.363281 114.933594 230.039062 117.429688 234.214844 121.136719 C 240.21875 126.46875 244.886719 133.027344 250.167969 139.023438 C 254.394531 143.824219 258.878906 148.328125 264.472656 151.566406 C 276.402344 158.472656 292.320312 156.550781 302.289062 147.027344 C 303.253906 146.105469 303.976562 144.84375 305.5 144.5 C 306.742188 145.589844 306.203125 147.054688 306.203125 148.324219 C 306.238281 169.816406 306.226562 191.308594 306.230469 212.800781 C 306.230469 214.683594 306.3125 216.535156 304.871094 218.074219 C 298.027344 225.390625 289.84375 229.976562 279.65625 230.367188 C 278.058594 230.425781 276.445312 229.976562 274.523438 229.734375 Z M 274.523438 229.734375 "/>
<path style=" stroke:none;fill-rule:nonzero;fill:rgb(0%,0%,0%);fill-opacity:1;" d="M 162.75 244.527344 C 156.5625 244.527344 150.75 244.527344 144.535156 244.527344 C 145.296875 242.367188 146.835938 242.289062 147.933594 241.71875 C 162.242188 234.289062 171.34375 222.820312 172.816406 206.660156 C 174.226562 191.234375 165.945312 180.382812 153.65625 172.160156 C 141.976562 164.34375 128.828125 160.058594 115.492188 156.132812 C 103.214844 152.519531 91.390625 147.847656 81.445312 139.414062 C 79.71875 137.949219 78.214844 136.285156 76.996094 134.378906 C 74.078125 129.816406 74.179688 126.363281 77.304688 123.148438 C 80.792969 119.566406 85.914062 118.632812 89.96875 120.945312 C 92.945312 122.644531 95.195312 125.171875 97.363281 127.773438 C 102.316406 133.722656 106.660156 140.164062 112.234375 145.609375 C 124.257812 157.347656 140.0625 159.183594 153.949219 150.097656 C 161.839844 144.933594 165.707031 137.003906 167.644531 128.089844 C 169 121.863281 169.78125 115.535156 168.984375 109.136719 C 168.753906 107.28125 169.21875 106.261719 171.277344 106.261719 C 190.519531 106.285156 209.761719 106.285156 229.003906 106.3125 C 229.3125 106.3125 229.617188 106.578125 230.109375 106.808594 C 199.585938 119.574219 181.671875 141.460938 181.75 175.183594 C 181.824219 208.601562 199.316406 230.730469 229.421875 244.527344 C 207.320312 244.527344 185.222656 244.527344 162.75 244.527344 Z M 162.75 244.527344 "/>
<path style=" stroke:none;fill-rule:nonzero;fill:rgb(0%,0%,0%);fill-opacity:1;" d="M 150.8125 231.222656 C 147.152344 231.058594 144.695312 229.113281 142.3125 227.082031 C 137.4375 222.925781 133.714844 217.710938 129.457031 212.984375 C 123.929688 206.84375 118.230469 200.9375 110.5 197.433594 C 98.089844 191.808594 81.632812 195.5625 73.054688 206.082031 C 72.460938 206.8125 72.144531 207.90625 70.570312 207.898438 C 70.570312 195.152344 70.570312 182.425781 70.570312 169.6875 C 70.929688 169.710938 71.265625 169.636719 71.375 169.761719 C 81.953125 181.519531 96.109375 186.675781 110.691406 190.964844 C 123.789062 194.816406 136.539062 199.425781 148.035156 206.980469 C 151.804688 209.457031 155.414062 212.144531 158.148438 215.796875 C 160.328125 218.710938 161.773438 221.882812 160.058594 225.527344 C 158.308594 229.253906 155.257812 231.128906 150.8125 231.222656 Z M 150.8125 231.222656 "/>
<path style=" stroke:none;fill-rule:nonzero;fill:rgb(0%,0%,0%);fill-opacity:1;" d="M 104.242188 240.714844 C 105.90625 241.753906 107.777344 241.976562 108.777344 243.558594 C 108.03125 244.972656 106.777344 244.449219 105.753906 244.449219 C 95.917969 244.484375 86.082031 244.539062 76.246094 244.40625 C 74.238281 244.378906 71.484375 245.652344 70.394531 242.714844 C 69.035156 239.042969 70.460938 234.574219 73.484375 232.730469 C 78.527344 229.648438 83.769531 230.113281 88.824219 232.558594 C 93.972656 235.046875 98.945312 237.898438 104.242188 240.714844 Z M 104.242188 240.714844 "/>
<path style=" stroke:none;fill-rule:nonzero;fill:rgb(0%,0%,0%);fill-opacity:1;" d="M 144 106.25 C 149.996094 106.253906 155.621094 106.324219 161.238281 106.230469 C 164.011719 106.179688 164.699219 107.386719 164.246094 109.9375 C 162.789062 118.109375 155.039062 122.136719 146.757812 118.898438 C 142.070312 117.066406 138.023438 114.078125 133.734375 111.527344 C 131.214844 110.027344 128.652344 108.59375 126.265625 106.25 C 132.050781 106.25 137.839844 106.25 144 106.25 Z M 144 106.25 "/>
<path style=" stroke:none;fill-rule:nonzero;fill:rgb(0%,0%,0%);fill-opacity:1;" d="M 273.976562 110.058594 C 271.976562 109.039062 270.21875 108.15625 268.425781 107.257812 C 269.082031 105.789062 270.21875 106.265625 271.09375 106.261719 C 281.433594 106.230469 291.773438 106.328125 302.113281 106.203125 C 305.074219 106.167969 306.320312 106.949219 306.289062 110.167969 C 306.222656 117.734375 302.671875 120.863281 294.746094 119.820312 C 289.921875 119.183594 285.945312 116.476562 281.746094 114.332031 C 279.199219 113.027344 276.726562 111.578125 273.976562 110.058594 Z M 273.976562 110.058594 "/>
<path style=" stroke:none;fill-rule:nonzero;fill:rgb(0%,0%,0%);fill-opacity:1;" d="M 306.21875 241.304688 C 306.269531 243.285156 305.582031 244.394531 303.882812 244.402344 C 294.183594 244.441406 284.484375 244.421875 274.589844 243.910156 C 285.890625 238.976562 296.449219 233.046875 305.144531 224.15625 C 305.503906 224.339844 305.863281 224.527344 306.226562 224.714844 C 306.226562 230.128906 306.226562 235.542969 306.21875 241.304688 Z M 306.21875 241.304688 "/>
<path style=" stroke:none;fill-rule:nonzero;fill:rgb(0%,0%,0%);fill-opacity:1;" d="M 87.476562 106.230469 C 88.992188 106.378906 90.277344 105.863281 91.824219 107.109375 C 83.558594 110.921875 76.484375 115.957031 70.359375 122.921875 C 70.359375 117.898438 70.277344 112.871094 70.402344 107.847656 C 70.445312 106.078125 72.089844 106.300781 73.292969 106.289062 C 77.910156 106.238281 82.527344 106.246094 87.476562 106.230469 Z M 87.476562 106.230469 "/>
<path style=" stroke:none;fill-rule:nonzero;fill:rgb(0%,0%,0%);fill-opacity:1;" d="M 139.730469 259.75 C 140.191406 260.445312 140.53125 260.925781 140.980469 261.566406 C 141.882812 260.078125 141.386719 258.691406 141.507812 257.390625 C 141.628906 256.085938 141.644531 254.808594 143.453125 254.835938 C 145.164062 254.859375 145.484375 256.09375 145.511719 257.398438 C 145.570312 260.519531 145.554688 263.640625 145.511719 266.765625 C 145.496094 267.882812 145.453125 269.125 143.972656 269.382812 C 142.582031 269.625 141.167969 269.65625 140.28125 268.273438 C 139.285156 266.722656 138.375 265.113281 136.964844 262.757812 C 136.757812 264.863281 136.644531 266.15625 136.5 267.449219 C 136.355469 268.761719 135.6875 269.480469 134.277344 269.386719 C 132.714844 269.285156 132.5625 268.175781 132.550781 267 C 132.523438 263.878906 132.5 260.753906 132.539062 257.632812 C 132.550781 256.550781 132.371094 255.21875 133.886719 254.914062 C 135.246094 254.636719 136.660156 254.488281 137.539062 255.980469 C 138.238281 257.160156 138.921875 258.351562 139.730469 259.75 Z M 139.730469 259.75 "/>
<path style=" stroke:none;fill-rule:nonzero;fill:rgb(0%,0%,0%);fill-opacity:1;" d="M 255.738281 265.660156 C 256.246094 266.910156 257.183594 267.746094 256.8125 269.011719 C 252.972656 271.054688 252.8125 266.460938 250.914062 265.386719 C 249.769531 266.023438 250.039062 266.875 249.960938 267.5625 C 249.804688 268.972656 249.023438 269.488281 247.695312 269.414062 C 246.472656 269.339844 245.902344 268.625 245.894531 267.480469 C 245.863281 263.878906 245.839844 260.273438 245.902344 256.671875 C 245.910156 256.140625 246.285156 255.457031 246.710938 255.117188 C 247.9375 254.136719 254.453125 254.769531 255.644531 255.992188 C 257.789062 258.199219 257.910156 260.570312 255.972656 263 C 255.378906 263.738281 255.167969 264.527344 255.738281 265.660156 Z M 255.738281 265.660156 "/>
<path style=" stroke:none;fill-rule:nonzero;fill:rgb(0%,0%,0%);fill-opacity:1;" d="M 215.359375 258.886719 C 215.34375 261.855469 215.355469 264.46875 215.308594 267.082031 C 215.28125 268.496094 214.734375 269.484375 213.082031 269.40625 C 211.546875 269.332031 211.363281 268.265625 211.28125 267.078125 C 211.171875 265.515625 211.542969 263.652344 209.042969 263.582031 C 206.382812 263.507812 206.523438 265.394531 206.46875 267.167969 C 206.429688 268.390625 206.164062 269.402344 204.621094 269.410156 C 202.941406 269.417969 202.511719 268.3125 202.484375 266.957031 C 202.421875 263.722656 202.398438 260.488281 202.414062 257.253906 C 202.421875 255.890625 202.882812 254.800781 204.523438 254.738281 C 206.324219 254.667969 206.496094 255.878906 206.480469 257.214844 C 206.464844 258.859375 206.722656 260.242188 208.839844 260.207031 C 210.320312 260.183594 211.15625 259.5625 211.238281 257.992188 C 211.3125 256.5625 211.007812 254.71875 213.332031 254.855469 C 215.808594 255.003906 215.191406 257.019531 215.359375 258.886719 Z M 215.359375 258.886719 "/>
<path style=" stroke:none;fill-rule:nonzero;fill:rgb(0%,0%,0%);fill-opacity:1;" d="M 105.765625 256.574219 C 108.363281 253.753906 111.140625 253.65625 114.039062 255.398438 C 115.261719 256.132812 116.328125 257.421875 115.574219 258.832031 C 114.75 260.375 113.230469 259.765625 111.988281 259.0625 C 111.253906 258.648438 110.644531 257.84375 109.484375 258.695312 C 109.894531 260.597656 111.835938 260.070312 112.964844 260.660156 C 115.011719 261.730469 116.675781 262.972656 116.203125 265.507812 C 115.667969 268.394531 113.59375 269.6875 110.800781 269.734375 C 108.25 269.777344 106.140625 268.851562 105.113281 266.292969 C 104.804688 265.527344 104.9375 264.792969 105.769531 264.402344 C 106.742188 263.949219 107.742188 263.910156 108.582031 264.652344 C 109.5 265.464844 110.273438 266.632812 112.066406 265.015625 C 109.519531 262.585938 103.019531 262.925781 105.765625 256.574219 Z M 105.765625 256.574219 "/>
<path style=" stroke:none;fill-rule:nonzero;fill:rgb(0%,0%,0%);fill-opacity:1;" d="M 231.566406 257.453125 C 231.613281 255.632812 232.195312 254.789062 233.832031 254.8125 C 236.332031 254.84375 235.207031 257.3125 236.253906 258.421875 C 238.269531 256.683594 239.558594 253.609375 243.746094 255.269531 C 237.996094 259.726562 240.128906 264.308594 243.945312 268.648438 C 239.027344 271.113281 238.785156 266.46875 236.792969 264.953125 C 235.292969 265.410156 235.808594 266.617188 235.6875 267.480469 C 235.5 268.84375 234.839844 269.484375 233.472656 269.417969 C 232.015625 269.351562 231.589844 268.402344 231.578125 267.152344 C 231.554688 264.035156 231.558594 260.917969 231.566406 257.453125 Z M 231.566406 257.453125 "/>
<path style=" stroke:none;fill-rule:nonzero;fill:rgb(0%,0%,0%);fill-opacity:1;" d="M 191.410156 254.917969 C 194.550781 253.691406 197.085938 254.265625 199.167969 256.472656 C 200.003906 257.355469 200.992188 258.578125 199.980469 259.761719 C 199.003906 260.910156 197.71875 260.445312 196.726562 259.449219 C 195.671875 258.390625 194.476562 257.75 193.070312 258.609375 C 191.777344 259.394531 191.492188 260.75 191.507812 262.195312 C 191.519531 263.648438 191.886719 264.960938 193.222656 265.691406 C 194.515625 266.394531 195.617188 265.792969 196.582031 264.875 C 197.585938 263.917969 198.855469 263.367188 199.859375 264.484375 C 200.925781 265.671875 199.785156 266.84375 199.039062 267.761719 C 196.746094 270.582031 191.5 270.347656 189.164062 267.394531 C 186.015625 263.414062 186.804688 258.476562 191.410156 254.917969 Z M 191.410156 254.917969 "/>
<path style=" stroke:none;fill-rule:nonzero;fill:rgb(0%,0%,0%);fill-opacity:1;" d="M 219.460938 260.753906 C 220.894531 258.609375 220 254.894531 223.429688 254.878906 C 227.105469 254.863281 226.421875 258.585938 227.367188 260.742188 C 228.5 263.3125 229.640625 265.960938 229.96875 268.863281 C 228.207031 269.914062 227.058594 269.535156 225.910156 267.867188 C 224.449219 265.746094 222.515625 265.828125 221.082031 267.886719 C 220.03125 269.398438 218.972656 269.808594 217.113281 268.976562 C 216.917969 266.105469 218.671875 263.699219 219.460938 260.753906 Z M 219.460938 260.753906 "/>
<path style=" stroke:none;fill-rule:nonzero;fill:rgb(0%,0%,0%);fill-opacity:1;" d="M 269.3125 260.265625 C 270.164062 263.289062 271.65625 265.816406 271.96875 268.796875 C 270.203125 269.863281 269.066406 269.574219 267.902344 267.871094 C 266.449219 265.742188 264.46875 265.78125 263.070312 267.886719 C 262.003906 269.492188 260.910156 269.679688 258.867188 268.996094 C 259.898438 264.34375 261.550781 259.949219 263.582031 255.785156 C 264.457031 253.996094 266.617188 254.199219 267.765625 256.144531 C 268.449219 257.304688 268.742188 258.699219 269.3125 260.265625 Z M 269.3125 260.265625 "/>
<path style=" stroke:none;fill-rule:nonzero;fill:rgb(0%,0%,0%);fill-opacity:1;" d="M 167.1875 269.4375 C 165.949219 269.433594 165.320312 269.054688 164.773438 268.207031 C 163.109375 265.632812 161.269531 265.648438 159.550781 268.171875 C 158.601562 269.566406 157.476562 269.785156 155.683594 268.871094 C 156.429688 264.378906 158.320312 260.191406 160.082031 256.011719 C 160.863281 254.160156 163.238281 254.039062 164.039062 255.59375 C 166.140625 259.671875 167.597656 264.074219 168.539062 268.597656 C 168.582031 268.789062 167.855469 269.140625 167.1875 269.4375 Z M 167.1875 269.4375 "/>
<path style=" stroke:none;fill-rule:nonzero;fill:rgb(0%,0%,0%);fill-opacity:1;" d="M 118.578125 265.6875 C 119.679688 262.59375 120.667969 259.769531 121.671875 256.953125 C 122.113281 255.710938 122.746094 254.753906 124.3125 254.761719 C 125.882812 254.769531 126.484375 255.734375 126.917969 256.984375 C 128.265625 260.84375 129.617188 264.707031 131 268.660156 C 129.285156 269.75 128.058594 269.890625 126.992188 268.234375 C 125.3125 265.625 123.421875 265.671875 121.761719 268.140625 C 120.757812 269.636719 119.648438 269.601562 118.222656 269.125 C 117.371094 267.988281 118.273438 267 118.578125 265.6875 Z M 118.578125 265.6875 "/>
<path style=" stroke:none;fill-rule:nonzero;fill:rgb(0%,0%,0%);fill-opacity:1;" d="M 177.777344 266.066406 C 179.433594 266.152344 180.273438 266.699219 180.003906 268.175781 C 179.808594 269.265625 178.898438 269.398438 178.003906 269.464844 C 177.507812 269.503906 177.007812 269.503906 176.511719 269.515625 C 170.152344 269.703125 170.152344 269.703125 170.148438 263.261719 C 170.144531 261.515625 170.109375 259.769531 170.1875 258.027344 C 170.25 256.546875 170.175781 254.816406 172.394531 254.867188 C 174.484375 254.914062 174.164062 256.585938 174.21875 257.894531 C 174.289062 259.511719 174.34375 261.144531 174.226562 262.753906 C 174.046875 265.160156 175.015625 266.285156 177.777344 266.066406 Z M 177.777344 266.066406 "/>
<path style=" stroke:none;fill-rule:nonzero;fill:rgb(0%,0%,0%);fill-opacity:1;" d="M 149.808594 256.699219 C 150.066406 254.820312 151.144531 254.6875 152.332031 254.941406 C 153.363281 255.164062 153.617188 256.101562 153.621094 256.972656 C 153.644531 260.066406 153.742188 263.175781 153.5 266.257812 C 153.292969 268.867188 151.492188 269.757812 149 269.453125 C 147.714844 269.296875 146.90625 268.140625 147.683594 267.480469 C 151.230469 264.472656 149.144531 260.519531 149.808594 256.699219 Z M 149.808594 256.699219 "/>
</g>
</svg>
